<?xml version="1.0" encoding="UTF-8"?>
<svg id="Layer_2" data-name="Layer 2" xmlns="http://www.w3.org/2000/svg" viewBox="0 0 117.76 191.27">
  <defs>
    <style>
      .cls-1 {
        fill: #66b5a3;
      }

      .cls-1, .cls-2, .cls-3, .cls-4, .cls-5 {
        stroke: #2f605a;
        stroke-miterlimit: 10;
      }

      .cls-2 {
        fill: #71cabe;
      }

      .cls-3 {
        fill: #7fc5b6;
      }

      .cls-4 {
        fill: #92d4cc;
      }

      .cls-5 {
        fill: #76b8aa;
      }
    </style>
  </defs>
  <g id="Layer_3" data-name="Layer 3">
    <polygon class="cls-5" points="12.77 54.99 12.77 189.78 .5 173.59 1.61 38.1 3.84 35.04 12.77 54.99"/>
  </g>
  <g id="Layer_4" data-name="Layer 4">
    <polygon class="cls-1" points="67.19 19.27 12.77 54.99 3.84 35.04 33.43 5.87 60.5 .57 67.19 19.27"/>
  </g>
  <g id="Layer_5" data-name="Layer 5">
    <polygon class="cls-3" points="116.87 41.04 102.91 36.85 67.19 19.27 60.5 .57 81.43 1.69 113.24 32.66 116.87 41.04"/>
  </g>
  <g id="Layer_6" data-name="Layer 6">
    <polygon class="cls-2" points="116.87 41.04 116.87 180.57 102.36 186.99 102.91 36.85 116.87 41.04"/>
  </g>
  <g id="Layer_7" data-name="Layer 7">
    <polygon class="cls-4" points="102.91 36.85 102.36 186.99 12.77 189.78 12.77 54.99 67.19 19.27 102.91 36.85"/>
  </g>
</svg>